<svg width="512" height="512" xmlns="http://www.w3.org/2000/svg" style="background-color:#eceff4"><path fill="#4c566a" d="M149 368c-16-2-29-7-40-13l-3-2v4l1 7v3H87l-1-3v-67h17l1 3c3 24 18 42 41 48 7 2 23 2 29 1 7-2 13-6 18-10 6-6 9-12 9-21s-2-14-8-20c-7-8-14-12-43-25-20-9-25-11-35-18-21-13-31-29-32-50-1-11 2-23 6-31 10-16 25-26 47-30 8-1 25-1 34 1 12 2 24 6 32 12l3 1-1-3v-7l-1-3h21v70h-17l-1-5c-6-31-25-48-52-48-8 0-12 1-19 4-6 2-12 8-14 13-4 8-4 19 0 27 2 4 9 11 16 15 5 4 19 11 33 17 22 10 32 15 43 23 12 10 20 22 23 34 2 10 1 24-3 34-8 21-29 35-58 39h-26zm117-12v-8l5-1c8-1 13-5 15-14l1-82 1-82 1-2-12 1h-11v-20h151l1 1 1 53v4h-8c-9 0-9 0-9-6 0-10-3-19-9-25-7-8-14-10-31-10-24-1-31 2-35 13l-1 35v30h44l-1-3a228 228 0 0 1-1-22v-2h20v72h-16l-1-6c-1-9-2-12-6-16l-6-4c-5-1-18-2-27-1h-6v40l-1 42-1 2h28c28-1 30-1 37-4l7-3c9-6 14-17 16-34v-5h17v10a1748 1748 0 0 0-2 54v1H266z"/></svg>