<svg version="1.0" xmlns="http://www.w3.org/2000/svg" width="533.3" height="533.3" viewBox="0 0 400 400"><path fill="#00008b" d="M113.5 105.9A61.3 61.3 0 0 0 65 139.5c-4 8.7-5.4 16.9-4.7 28.3.8 14 4 21.7 12.6 30.3 9.5 9.5 21 14 44.4 17.4 32.8 4.8 40.8 11.2 39.4 31.7-1.2 17.8-12.7 29-32.9 31.9a59.5 59.5 0 0 1-29.8-3.2 43.3 43.3 0 0 1-17.9-18.7c-4.7-9.3-9.7-11.6-14.6-6.8-4.5 4.5-4.3 6.3 3.1 26.7 7.9 21.9 5.2 19.4 25.2 22.9 30 5.2 56.7-1 77-18a58.3 58.3 0 0 0 22.2-47.7 43 43 0 0 0-7.6-27.5c-8.9-13.3-20.1-18.1-54.9-23.3-15.1-2.3-19.3-3.4-24.2-6.1-8.3-4.7-11.9-14-9.8-24.9 3.2-16.8 13.9-24.9 33-25 8.3 0 9.5.3 15.3 3.4 7.2 3.9 16.1 13 19.7 20.1 2.7 5.4 4.9 7 9.2 7 5.6 0 6.9-2.5 8.3-15.6l1.6-15.4.6-5.5-6.8-3.7c-18-9.6-41.4-14.2-59.9-11.9zM205.9 113.1c-1.8 1.8-2 3-1.6 6.8.5 4.7.8 5 7.7 9.4l3.5 2.3v144.8l-3.5 2.3c-6.9 4.4-7.2 4.7-7.7 9.4-.4 3.9-.2 4.9 1.8 6.8l2.3 2.1 61-.2 60.9-.3 5.3-18.5c3-10.2 5.4-19.8 5.4-21.3 0-3.6-4-7.7-7.6-7.7-2.2 0-5.1 2.4-14.3 11.9-10.1 10.3-12.2 12-16.3 13-6.6 1.6-51 1.5-52.6-.1-1.7-1.7-1.7-58.9 0-60.6a66.5 66.5 0 0 1 24.1-.3c1.4.6 3.6 2.8 4.8 5.1 4.1 7.2 11.9 9.3 15.8 4.4 2-2.5 2.1-4 2.1-21.1a117 117 0 0 0-1-20.3c-1.2-2.3-5.9-3.9-9.4-3.3-2.7.6-7.6 5.5-7.6 7.7 0 .7-.8 2-1.9 3-1.5 1.4-3.8 1.6-14.7 1.4l-12.9-.3-.3-26c-.1-14.3 0-27 .3-28.3l.5-2.2h25.3c29.8 0 28-.6 38.2 12.4 3.7 4.8 7.5 9.1 8.5 9.6 3 1.6 6.8 1.2 9-1 1.9-1.9 2-3.3 2-22.5V111h-62.5c-62.3 0-62.5 0-64.6 2.1z"/></svg>
